<svg xmlns="http://www.w3.org/2000/svg" width="21.233" height="16.676" viewBox="0 0 21.233 16.676">
  <path id="iconUndo" d="M23.473,20.545a10.069,10.069,0,0,0-2.691-7.52,11.048,11.048,0,0,0-7.743-3.1.192.192,0,0,1-.18-.19V5.814a.191.191,0,0,0-.294-.161L2.335,12.391a.19.19,0,0,0,0,.317l10.23,6.738a.188.188,0,0,0,.294-.161V15.419a.189.189,0,0,1,.2-.19,11.142,11.142,0,0,1,4.6,1.1,11.669,11.669,0,0,1,4.478,3.957,10.146,10.146,0,0,1,1.014,1.881.21.21,0,0,0,.194.133h.137C23.478,21.744,23.473,21.034,23.473,20.545Z" transform="translate(-2.25 -5.622)" fill="current"/>
</svg>
