<svg xmlns="http://www.w3.org/2000/svg" width="21.233" height="16.676" viewBox="0 0 21.233 16.676">
  <path id="iconRedo" d="M2.259,20.545a10.069,10.069,0,0,1,2.691-7.52,11.048,11.048,0,0,1,7.743-3.1.192.192,0,0,0,.18-.19V5.814a.191.191,0,0,1,.294-.161L23.4,12.391a.19.19,0,0,1,0,.317l-10.23,6.738a.188.188,0,0,1-.294-.161V15.419a.189.189,0,0,0-.2-.19,11.142,11.142,0,0,0-4.6,1.1A11.669,11.669,0,0,0,3.6,20.285a10.146,10.146,0,0,0-1.014,1.881.21.21,0,0,1-.194.133H2.25C2.255,21.744,2.259,21.034,2.259,20.545Z" transform="translate(-2.25 -5.622)" fill="current"/>
</svg>